<?xml version="1.0" standalone="no"?>
<!DOCTYPE svg PUBLIC "-//W3C//DTD SVG 20010904//EN"
 "http://www.w3.org/TR/2001/REC-SVG-20010904/DTD/svg10.dtd">
<svg version="1.0" xmlns="http://www.w3.org/2000/svg"
 width="1280.000000pt" height="1168.000000pt" viewBox="0 0 1280.000000 1168.000000"
 preserveAspectRatio="xMidYMid meet">
<metadata>
Created by potrace 1.15, written by Peter Selinger 2001-2017
</metadata>
<g transform="translate(0.000000,1168.000000) scale(0.100000,-0.100000)"
fill="#000000" stroke="none">
<path d="M12544 11670 c-229 -24 -457 -97 -726 -231 -164 -81 -301 -163 -668
-399 -151 -97 -381 -240 -510 -317 -856 -509 -1048 -626 -1221 -741 -107 -72
-254 -179 -328 -238 -73 -60 -188 -153 -255 -207 -133 -108 -327 -239 -668
-450 -350 -216 -394 -253 -828 -682 -212 -209 -425 -412 -475 -452 -199 -157
-357 -241 -508 -271 -77 -15 -83 -15 -248 13 -162 26 -272 30 -319 11 -10 -4
-21 3 -32 21 -45 76 -241 351 -323 454 -273 338 -554 517 -903 575 -118 20
-404 23 -542 5 -134 -17 -320 -54 -495 -100 -501 -130 -671 -171 -765 -187
l-105 -17 -260 51 c-817 161 -1152 212 -1550 231 -221 11 -491 2 -669 -24 -60
-8 -114 -15 -119 -15 -6 0 -8 -2 -6 -4 2 -3 45 -10 94 -16 839 -105 1395 -223
2080 -441 490 -156 618 -207 740 -293 182 -131 346 -384 494 -761 34 -88 81
-207 103 -265 117 -298 306 -613 559 -930 199 -249 247 -326 432 -695 203
-402 240 -461 518 -822 88 -114 191 -254 229 -311 72 -108 170 -290 170 -315
0 -8 -44 -41 -97 -73 -141 -83 -359 -231 -482 -327 -122 -94 -401 -368 -485
-474 -199 -254 -335 -529 -425 -862 l-20 -74 53 6 c29 3 95 23 147 45 101 43
153 57 169 47 6 -3 -10 -36 -39 -78 -79 -118 -179 -300 -266 -487 -93 -201
-109 -239 -103 -245 2 -3 34 -9 70 -14 70 -10 172 -3 367 23 63 9 127 16 142
16 27 0 28 -1 17 -31 -6 -17 -55 -121 -109 -230 -103 -209 -148 -323 -168
-424 -7 -33 -15 -68 -17 -77 -5 -16 3 -18 64 -18 138 0 278 63 517 230 146
102 256 172 262 167 1 -2 -11 -41 -28 -88 -103 -280 -135 -452 -126 -668 7
-167 11 -181 47 -181 39 0 147 37 209 72 80 46 188 136 261 219 114 129 244
260 288 291 l42 29 0 -214 c0 -208 15 -360 40 -407 17 -32 51 -11 161 100 144
144 168 149 155 30 -8 -66 4 -100 33 -100 13 0 26 20 46 73 124 319 320 642
735 1212 113 154 256 357 319 450 63 94 116 172 118 174 1 2 12 -4 23 -14 18
-16 21 -16 44 -2 49 32 127 157 291 463 59 109 111 204 117 209 6 6 7 -9 2
-41 -4 -35 -3 -54 6 -59 16 -10 17 -8 56 101 209 585 270 1338 159 1979 -20
114 -68 316 -101 419 l-25 79 33 56 c50 84 188 218 303 293 114 75 207 122
484 249 228 105 337 162 441 232 90 60 216 180 266 253 30 44 60 67 168 135
271 169 476 329 664 518 94 95 112 109 147 114 61 7 152 50 197 93 22 22 131
143 243 269 247 281 370 401 548 533 75 56 197 146 270 201 236 176 356 295
463 458 63 94 108 187 94 191 -33 12 -1179 -170 -1294 -205 -15 -4 -11 6 19
48 193 265 259 401 335 692 27 103 32 111 72 145 146 121 216 242 218 377 1
37 6 44 80 107 43 37 126 120 184 184 121 132 537 637 567 689 11 19 27 76 35
127 19 120 50 184 163 338 166 226 210 333 185 459 l-6 31 -87 -1 c-47 -1
-118 -5 -157 -9z"/>
</g>
</svg>
